<?xml version="1.0" encoding="UTF-8" standalone="no"?>
<svg
   width="500"
   height="500"
   viewBox="0 0 500 500"
   fill="none"
   version="1.1"
   id="svg7"
   xmlns="http://www.w3.org/2000/svg"
   xmlns:svg="http://www.w3.org/2000/svg">
  <g
     clip-path="url(#clip0_1096_50)"
     id="g7">
    <mask
       id="mask0_1096_50"
       maskUnits="userSpaceOnUse"
       x="68"
       y="90"
       width="363"
       height="358">
      <path
         fill-rule="evenodd"
         clip-rule="evenodd"
         d="m 334.768,447.508 v 0.246 0.246 h -21.177 -21.177 l -0.83,-2.016 -0.83,-2.016 -3.304,-7.525 -3.304,-7.525 -4.585,-10.75 -4.585,-10.751 -6.182,-14.244 -6.183,-14.244 -4.84,-11.019 -4.841,-11.019 -11.833,-27.414 -11.834,-27.413 -2.56,-5.913 -2.56,-5.912 -9.793,-23.114 -9.793,-23.113 -4.733,-11.019 -4.732,-11.019 -3.48,-8.331 -3.48,-8.332 -8.352,-19.619 -8.352,-19.62 -4.932,-11.009 -4.932,-11.008 -6.108,-12.374 -6.107,-12.373 -3.299,-5.912 -3.299,-5.913 -4.793,-8.422 L 133,90 l 0.166,0.0025 23.789,0.14 23.789,0.14 1.285,2.6876 1.286,2.6875 7.786,17.7384 7.787,17.738 6.171,14.244 6.171,14.244 8.608,19.888 8.607,19.888 13.415,31.176 13.415,31.176 11.848,27.682 11.847,27.683 9.411,22.038 9.41,22.038 9.026,20.963 9.027,20.963 6.027,14.244 6.027,14.245 3.435,7.951 z m 47.31,-0.065 v 0.279 0.278 h -19.564 -19.565 l -2.162,-4.972 -2.162,-4.972 -9.241,-21.77 -9.24,-21.769 -14.389,-33.595 -14.389,-33.595 -6.863,-16.125 -6.863,-16.126 -13.849,-32.251 -13.849,-32.251 -11.572,-26.875 -11.571,-26.876 -4.563,-10.482 -4.563,-10.481 -3.861,-8.869 -3.861,-8.869 -3.948,-9.138 -3.948,-9.138 -6.444,-14.681 L 189,90 h 1 0.426 l 19.261,0.1413 19.261,0.1413 12.36,28.4884 12.359,28.488 7.163,16.663 7.162,16.663 9.4,22.039 9.399,22.038 8.458,19.888 8.457,19.888 4.997,11.557 4.997,11.556 21.768,50.796 21.768,50.795 12.421,29.151 z M 431,446.864 v 0.568 0.568 h -20.094 -20.095 l -0.539,-0.672 -0.539,-0.672 -4.068,-9.727 -4.069,-9.728 -30.628,-71.437 -30.628,-71.438 -6.693,-15.588 -6.693,-15.588 -8.469,-19.888 -8.468,-19.888 -3.904,-9.138 -3.903,-9.138 -4.431,-10.481 -4.43,-10.482 -6.98,-16.125 -6.98,-16.126 -7.701,-17.738 -7.702,-17.738 -3.487,-7.9621 L 237,90 h 0.5 l 0.772,3e-4 19.888,0.1412 19.888,0.1411 5,11.5564 5,11.557 9.176,21.232 9.176,21.232 28.975,67.727 28.976,67.727 0.859,1.881 0.858,1.881 24.88,58.052 24.88,58.052 7.586,17.842 z"
         fill="#32caf4"
         id="path1" />
      <path
         d="m 223.275,438.459 -0.369,-9.541 -0.532,-9.138 -0.532,-9.138 -1.073,-12.9 -1.074,-12.9 -1.898,-16.126 -1.898,-16.125 -2.384,-14.245 -2.384,-14.244 -2.197,-11.019 -2.198,-11.019 -2.919,-12.632 -2.92,-12.631 -2.449,-9.138 -2.449,-9.138 -3.42,-11.288 -3.42,-11.287 -4.117,-11.826 -4.117,-11.825 -4.304,-11.288 -4.305,-11.288 -2.949,-7.525 -2.948,-7.525 -5.129,-12.095 -5.128,-12.094 -5.612,-11.556 -5.611,-11.557 -4.085,-7.525 -4.086,-7.525 -6.415,-11.154 -6.415,-11.1533 H 95.969 68 l 0.3136,0.817 0.3135,0.817 2.0806,3.08 2.0806,3.08 4.8555,7.8363 4.8556,7.836 4.2919,7.483 4.292,7.483 4.9208,9.207 4.9209,9.207 5.841,12.294 5.842,12.293 4.033,9.138 4.033,9.138 4.33,10.482 4.33,10.481 3.847,10.213 3.846,10.213 3.956,11.825 3.956,11.826 3.506,12.182 3.506,12.182 2.685,10.662 2.684,10.663 2.457,11.249 2.456,11.25 2.119,12.401 2.118,12.401 1.599,11.288 1.598,11.288 1.087,9.675 1.086,9.675 0.819,10.213 0.819,10.213 0.25,3.494 0.25,3.494 0.333,9.944 0.334,9.944 0.194,2.419 0.195,2.418 0.032,3.091 0.033,3.091 h 24.273 24.273 z"
         fill="#32caf4"
         id="path2" />
    </mask>
    <g
       mask="url(#mask0_1096_50)"
       id="g6">
      <path
         d="m 228.5,336 7.5,130.5 h 3.5 L 195.5,485 152,458.5 40,73 l 79,-4.5 21,43 19,38.5 30.5,77 z"
         fill="#49fcff"
         stroke="#000000"
         id="path3" />
      <path
         d="m 338,445.5 2.5,25.5 -1.5,4 -63,7 -36.5,-128.5 -42.5,-120 -59.5,-130 -7.5,-16 47,-19 73,173.5 42,96.5 25,57.5 z"
         fill="#49ffa7"
         stroke="#000000"
         id="path4" />
      <path
         d="m 376,423.5 15,47.5 v 4 L 356,483.5 191,100 186.5,87.5 225.5,74 Z"
         fill="#fff049"
         stroke="#000000"
         id="path5" />
      <path
         d="M 425.5,410.5 437.5,460 397,472 234,89 281,78 Z"
         fill="#ff4949"
         stroke="#000000"
         id="path6" />
    </g>
  </g>
  <defs
     id="defs7">
    <clipPath
       id="clip0_1096_50">
      <rect
         width="363"
         height="358"
         fill="#ffffff"
         transform="translate(68,90)"
         id="rect7"
         x="0"
         y="0" />
    </clipPath>
  </defs>
</svg>
