<?xml version="1.0" encoding="UTF-8" standalone="no"?>
<!-- Created with Inkscape (http://www.inkscape.org/) -->

<svg
   width="31.999998"
   height="31.999998"
   viewBox="0 0 8.4666661 8.4666661"
   version="1.1"
   id="svg1"
   xml:space="preserve"
   inkscape:version="1.4.3 (0d15f75, 2025-12-25)"
   sodipodi:docname="logo.svg"
   xmlns:inkscape="http://www.inkscape.org/namespaces/inkscape"
   xmlns:sodipodi="http://sodipodi.sourceforge.net/DTD/sodipodi-0.dtd"
   xmlns="http://www.w3.org/2000/svg"
   xmlns:svg="http://www.w3.org/2000/svg"><sodipodi:namedview
     id="namedview1"
     pagecolor="#ffffff"
     bordercolor="#000000"
     borderopacity="0.25"
     inkscape:showpageshadow="2"
     inkscape:pageopacity="0.0"
     inkscape:pagecheckerboard="true"
     inkscape:deskcolor="#d1d1d1"
     inkscape:document-units="mm"
     inkscape:zoom="16.634007"
     inkscape:cx="17.945165"
     inkscape:cy="22.75459"
     inkscape:window-width="2560"
     inkscape:window-height="1369"
     inkscape:window-x="-8"
     inkscape:window-y="-8"
     inkscape:window-maximized="1"
     inkscape:current-layer="g1"><inkscape:page
       x="0"
       y="0"
       width="8.4666662"
       height="8.4666662"
       id="page2"
       margin="0"
       bleed="0" /></sodipodi:namedview><defs
     id="defs1" /><g
     inkscape:label="Layer 1"
     inkscape:groupmode="layer"
     id="layer1"><g
       style="clip-rule:evenodd;fill-rule:evenodd;image-rendering:optimizeQuality;shape-rendering:geometricPrecision;text-rendering:geometricPrecision"
       id="g1"
       transform="matrix(0.01453104,0,0,0.01453104,0.51339604,0)"><path
         fill="#ffffff"
         fill-rule="nonzero"
         d="m 27.890662,354.93068 84.216008,-1.10993 c 1.75739,-0.009 3.41303,0.49022 4.80045,1.37816 30.4861,17.58316 57.53141,39.72628 80.79371,66.13338 30.81908,-50.03013 63.76553,-95.85178 98.55261,-137.85341 37.16419,-44.86895 76.58523,-85.56643 117.89316,-122.60112 a 8.7536548,8.7536548 0 0 1 5.85489,-2.22911 l 64.154,-0.0463 c 7.88976,0 11.31205,8.61121 6.22486,15.03956 -56.85621,63.16433 -108.51424,128.61325 -155.18683,196.0878 A 1919.2684,1919.2684 0 0 0 209.4106,578.87773 c -2.21986,4.30098 -7.52903,6.00288 -11.83001,3.78302 a 8.7647541,8.7647541 0 0 1 -4.0235,-4.28249 C 154.49677,494.68023 99.610695,423.55216 23.043964,370.96918 c -7.094309,-4.85595 -3.662772,-15.90901 4.846698,-16.0385 z"
         id="path1-3-7-9"
         style="clip-rule:evenodd;fill:#84f5ed;fill-opacity:1;fill-rule:evenodd;stroke-width:0.924942;image-rendering:optimizeQuality;shape-rendering:geometricPrecision;text-rendering:geometricPrecision" /><path
         fill="#ffffff"
         fill-rule="nonzero"
         d="m 27.890662,302.0632 84.216008,-1.10993 c 1.75739,-0.009 3.41303,0.49022 4.80045,1.37816 30.4861,17.58316 57.53141,39.72628 80.79371,66.13338 30.81908,-50.03013 63.76553,-95.85178 98.55261,-137.85341 37.16419,-44.86895 76.58523,-85.56643 117.89316,-122.60112 a 8.7536548,8.7536548 0 0 1 5.85489,-2.22911 l 64.154,-0.0463 c 7.88976,0 11.31205,8.61121 6.22486,15.03956 -56.85621,63.16433 -108.51424,128.61325 -155.18683,196.0878 A 1919.2684,1919.2684 0 0 0 209.4106,526.01025 c -2.21986,4.30098 -7.52903,6.00288 -11.83001,3.78302 a 8.7647541,8.7647541 0 0 1 -4.0235,-4.28249 C 154.49677,441.81275 99.610695,370.68468 23.043964,318.1017 c -7.094309,-4.85595 -3.662772,-15.90901 4.846698,-16.0385 z"
         id="path1-3-7"
         style="clip-rule:evenodd;fill:#2df186;fill-opacity:1;fill-rule:evenodd;stroke-width:0.924942;image-rendering:optimizeQuality;shape-rendering:geometricPrecision;text-rendering:geometricPrecision" /><path
         fill="#ffffff"
         fill-rule="nonzero"
         d="m 27.890662,249.19573 84.216008,-1.10993 c 1.75739,-0.009 3.41303,0.49022 4.80045,1.37816 30.4861,17.58316 57.53141,39.72628 80.79371,66.13339 30.81908,-50.03014 63.76553,-95.85178 98.55261,-137.85342 37.16419,-44.86895 76.58523,-85.566421 117.89316,-122.601111 a 8.7536548,8.7536548 0 0 1 5.85489,-2.229111 l 64.154,-0.04625 c 7.88976,0 11.31205,8.611213 6.22486,15.039563 C 433.52414,131.07134 381.86611,196.52026 335.19352,263.99481 A 1919.2684,1919.2684 0 0 0 209.4106,473.14278 c -2.21986,4.30098 -7.52903,6.00288 -11.83001,3.78302 a 8.7647541,8.7647541 0 0 1 -4.0235,-4.28249 C 154.49677,388.94528 99.610695,317.81721 23.043964,265.23423 c -7.094309,-4.85595 -3.662772,-15.90901 4.846698,-16.0385 z"
         id="path1-3"
         style="clip-rule:evenodd;fill:#f9ce08;fill-opacity:1;fill-rule:evenodd;stroke-width:0.924942;image-rendering:optimizeQuality;shape-rendering:geometricPrecision;text-rendering:geometricPrecision" /><path
         fill="#ffffff"
         fill-rule="nonzero"
         d="m 27.890662,196.32827 84.216008,-1.10993 c 1.75739,-0.009 3.41303,0.49022 4.80045,1.37816 30.4861,17.58316 57.53141,39.72628 80.79371,66.13339 30.81908,-50.03014 63.76553,-95.85178 98.55261,-137.85342 C 333.41763,80.007517 372.83867,39.310052 414.1466,2.2753583 a 8.7536548,8.7536548 0 0 1 5.85489,-2.22911118 L 484.15549,0 c 7.88976,0 11.31205,8.6112136 6.22486,15.039563 C 433.52414,78.203879 381.86611,143.6528 335.19352,211.12735 A 1919.2684,1919.2684 0 0 0 209.4106,420.27532 c -2.21986,4.30099 -7.52903,6.00288 -11.83001,3.78302 a 8.7647541,8.7647541 0 0 1 -4.0235,-4.28249 C 154.49677,336.07782 99.610695,264.94975 23.043964,212.36677 c -7.094309,-4.85594 -3.662772,-15.90901 4.846698,-16.0385 z"
         id="path1"
         style="fill:#f80e10;fill-opacity:1;stroke-width:0.924942" /></g></g></svg>
